<?xml version="1.0" standalone="no"?>
<!DOCTYPE svg PUBLIC "-//W3C//DTD SVG 20010904//EN"
 "http://www.w3.org/TR/2001/REC-SVG-20010904/DTD/svg10.dtd">
<svg version="1.0" xmlns="http://www.w3.org/2000/svg"
 width="500.000000pt" height="500.000000pt" viewBox="0 0 500.000000 500.000000"
 preserveAspectRatio="xMidYMid meet">
<metadata>
Created by potrace 1.14, written by Peter Selinger 2001-2017
</metadata>
<g transform="translate(0.000000,500.000000) scale(0.100000,-0.100000)"
fill="#000000" stroke="none">
<path d="M2339 4996 c-2 -2 -42 -7 -89 -11 -46 -3 -87 -8 -90 -10 -3 -1 -27
-5 -55 -9 -62 -7 -68 -9 -196 -39 -234 -57 -437 -138 -674 -271 -75 -42 -258
-174 -353 -253 -299 -252 -532 -572 -698 -961 -78 -182 -150 -480 -172 -707
-9 -101 -9 -365 1 -470 67 -722 452 -1385 1052 -1811 199 -141 532 -302 749
-360 67 -19 224 -54 256 -59 14 -2 43 -6 65 -9 135 -21 203 -24 405 -21 219 4
251 6 355 25 28 6 68 13 90 16 70 10 261 63 357 98 176 64 483 225 617 324
160 118 364 313 485 463 149 185 299 440 372 632 19 51 39 101 44 112 10 21
77 261 85 305 45 245 48 279 49 495 1 295 -10 401 -70 639 -35 137 -107 347
-143 413 -5 10 -30 59 -55 110 -41 82 -83 154 -165 278 -25 38 -112 151 -175
225 -58 68 -233 236 -316 303 -374 302 -795 477 -1300 542 -52 7 -425 16 -431
11z"/>
</g>
</svg>
