<?xml version="1.0" standalone="no"?>
<!DOCTYPE svg PUBLIC "-//W3C//DTD SVG 20010904//EN"
 "http://www.w3.org/TR/2001/REC-SVG-20010904/DTD/svg10.dtd">
<svg version="1.0" xmlns="http://www.w3.org/2000/svg"
 width="260.000000pt" height="260.000000pt" viewBox="0 0 260.000000 260.000000"
 preserveAspectRatio="xMidYMid meet">
<metadata>
Created by potrace 1.14, written by Peter Selinger 2001-2017
</metadata>
<g transform="translate(0.000000,260.000000) scale(0.100000,-0.100000)"
fill="#000000" stroke="none">
<path d="M1141 2589 c-536 -70 -967 -453 -1101 -979 -48 -188 -48 -451 0 -634
94 -357 330 -655 647 -819 200 -103 348 -145 553 -154 182 -8 367 20 510 77
361 143 628 410 764 760 69 176 90 312 83 510 -8 202 -36 320 -114 490 -55
118 -90 174 -174 275 -199 241 -466 401 -765 460 -93 19 -312 26 -403 14z"/>
</g>
</svg>
